<svg id="Layer_3" enable-background="new 0 0 64 64" height="512" viewBox="0 0 64 64" width="512" xmlns="http://www.w3.org/2000/svg"><path d="m54 33.42v24.58h-22c0 1.1-.45 2.1-1.17 2.83-.73.72-1.73 1.17-2.83 1.17s-2.1-.45-2.83-1.17c-.72-.73-1.17-1.73-1.17-2.83h-22v-36h4v8 24h22 22v-18.74c1.42-.44 2.76-1.06 4-1.84z" fill="#b27946"/><path d="m45 36c-8.51 0-15.56-6.25-16.8-14.41h-.22c-.21-2.02-1.91-3.59-3.98-3.59h-18v4 8 24h22 22v-18.74c-1.58.48-3.26.74-5 .74z" fill="#ffeaa7"/><circle cx="17" cy="41" fill="#b4dd7f" r="7"/><path d="m32 40h14v8h-14z" fill="#ff826e"/><path d="m45 2c9.39 0 17 7.61 17 17 0 .33-.01.67-.03 1h-.02-15.95c-1.1 0-2 .9-2 2 0 .55.22 1.05.59 1.41.36.37.86.59 1.41.59h1c1.1 0 2 .9 2 2 0 .55-.22 1.05-.59 1.41-.36.37-.86.59-1.41.59h-3c-1.1 0-2 .9-2 2 0 .55.22 1.05.59 1.41.36.37.86.59 1.41.59h11.94c-.61.52-1.26 1-1.94 1.42-1.24.78-2.58 1.4-4 1.84-1.58.48-3.26.74-5 .74-8.51 0-15.56-6.25-16.8-14.41-.13-.85-.2-1.71-.2-2.59 0-.33.01-.67.03-1h.02 12.95c1.1 0 2-.9 2-2 0-.55-.22-1.05-.59-1.41-.36-.37-.86-.59-1.41-.59h-1c-1.1 0-2-.9-2-2 0-.55.22-1.05.59-1.41.36-.37.86-.59 1.41-.59h3c1.1 0 2-.9 2-2 0-.55-.22-1.05-.59-1.41-.36-.37-.86-.59-1.41-.59h-8.94c2.95-2.5 6.77-4 10.94-4z" fill="#69d6f4"/><path d="m44.41 6.59c.37.36.59.86.59 1.41 0 1.1-.9 2-2 2h-3c-.55 0-1.05.22-1.41.59-.37.36-.59.86-.59 1.41 0 1.1.9 2 2 2h1c.55 0 1.05.22 1.41.59.37.36.59.86.59 1.41 0 1.1-.9 2-2 2h-12.95-.02c.28-4.81 2.56-9.09 6.03-12h8.94c.55 0 1.05.22 1.41.59z" fill="#b4dd7f"/><path d="m61.95 20h.02c-.28 4.81-2.56 9.09-6.03 12h-11.94c-.55 0-1.05-.22-1.41-.59-.37-.36-.59-.86-.59-1.41 0-1.1.9-2 2-2h3c.55 0 1.05-.22 1.41-.59.37-.36.59-.86.59-1.41 0-1.1-.9-2-2-2h-1c-.55 0-1.05-.22-1.41-.59-.37-.36-.59-.86-.59-1.41 0-1.1.9-2 2-2z" fill="#b4dd7f"/><path d="m53.394 7.794c-.573-.43-1.184-.818-1.815-1.155l-.94 1.766c.542.288 1.064.621 1.556.989z"/><path d="m56.421 15.308 1.903-.615c-.221-.682-.496-1.352-.818-1.991l-1.785.901c.276.546.511 1.12.7 1.705z"/><path d="m56.392 10.861c-.417-.583-.882-1.137-1.382-1.648l-1.43 1.398c.429.438.828.914 1.186 1.414z"/><path d="m63 19c0-9.925-8.075-18-18-18-9.61 0-17.461 7.575-17.953 17.065-.846-.658-1.895-1.065-3.047-1.065h-19v4h-4v38h22.101c.464 2.279 2.485 4 4.899 4s4.435-1.721 4.899-4h22.101v-25.044c4.82-3.233 8-8.729 8-14.956zm-2 0h-15c-1.654 0-3 1.346-3 3s1.346 3 3 3h1c.551 0 1 .449 1 1s-.449 1-1 1h-3c-1.654 0-3 1.346-3 3s1.346 3 3 3h8.729c-2.293 1.271-4.926 2-7.729 2-8.822 0-16-7.178-16-16h12c1.654 0 3-1.346 3-3s-1.346-3-3-3h-1c-.551 0-1-.449-1-1s.449-1 1-1h3c1.654 0 3-1.346 3-3s-1.346-3-3-3h-5.729c2.293-1.271 4.927-2 7.729-2 8.822 0 16 7.178 16 16zm-32 8.209c2.99 5.805 9.033 9.791 16 9.791 1.376 0 2.711-.17 4-.464v16.464h-20zm5.453-20.209h8.547c.551 0 1 .449 1 1s-.449 1-1 1h-3c-1.654 0-3 1.346-3 3s1.346 3 3 3h1c.551 0 1 .449 1 1s-.449 1-1 1h-11.861c.498-3.969 2.453-7.482 5.314-10zm-27.453 12h17c1.654 0 3 1.346 3 3v31h-20zm46 38h-22v1c0 1.654-1.346 3-3 3s-3-1.346-3-3v-1h-22v-34h2v32h46v-19.05c.687-.244 1.354-.527 2-.849zm2.547-26h-11.547c-.551 0-1-.449-1-1s.449-1 1-1h3c1.654 0 3-1.346 3-3s-1.346-3-3-3h-1c-.551 0-1-.449-1-1s.449-1 1-1h14.861c-.498 3.969-2.453 7.482-5.314 10z"/><path d="m36.053 29.769c.766.638 1.602 1.194 2.484 1.653l.924-1.773c-.756-.394-1.472-.871-2.129-1.417z"/><path d="m33.321 21.77-1.946.46c.573 2.423 1.791 4.658 3.523 6.463l1.443-1.385c-1.485-1.548-2.529-3.463-3.02-5.538z"/><path d="m31 49h16v-10h-16zm2-8h12v6h-12z"/><path d="m17 33c-4.411 0-8 3.589-8 8s3.589 8 8 8 8-3.589 8-8-3.589-8-8-8zm0 14c-3.309 0-6-2.691-6-6s2.691-6 6-6 6 2.691 6 6-2.691 6-6 6z"/><path d="m9 29h16v2h-16z"/><path d="m23 25h2v2h-2z"/><path d="m9 25h12v2h-12z"/><path d="m9 21h16v2h-16z"/></svg>