<svg height="480pt" viewBox="0 0 480 480" width="480pt" xmlns="http://www.w3.org/2000/svg"><path d="m280 48c0 22.089844-17.910156 40-40 40s-40-17.910156-40-40 17.910156-40 40-40 40 17.910156 40 40zm0 0" fill="#9bc9ff"/><path d="m280 120h-80c-30.929688 0-56 25.070312-56 56v72c0 26.507812 21.492188 48 48 48v184h96v-184c26.507812 0 48-21.492188 48-48v-72c0-30.929688-25.070312-56-56-56zm0 0" fill="#9bc9ff"/><g fill="#1e81ce"><path d="m240 96c-26.507812 0-48-21.492188-48-48s21.492188-48 48-48 48 21.492188 48 48c-.027344 26.5-21.5 47.972656-48 48zm0-80c-17.671875 0-32 14.328125-32 32s14.328125 32 32 32 32-14.328125 32-32-14.328125-32-32-32zm0 0"/><path d="m376 128c-26.507812 0-48-21.492188-48-48s21.492188-48 48-48 48 21.492188 48 48c-.027344 26.5-21.5 47.972656-48 48zm0-80c-17.671875 0-32 14.328125-32 32s14.328125 32 32 32 32-14.328125 32-32-14.328125-32-32-32zm0 0"/><path d="m104 128c-26.507812 0-48-21.492188-48-48s21.492188-48 48-48 48 21.492188 48 48c-.027344 26.5-21.5 47.972656-48 48zm0-80c-17.671875 0-32 14.328125-32 32s14.328125 32 32 32 32-14.328125 32-32-14.328125-32-32-32zm0 0"/><path d="m232 296h16v184h-16zm0 0"/><path d="m448.535156 156.527344c-11.925781-8.199219-26.0625-12.566406-40.535156-12.527344h-64c-3.886719.035156-7.761719.386719-11.59375 1.046875-5.1875-8.097656-11.945312-15.074219-19.871094-20.519531-11.925781-8.199219-26.0625-12.566406-40.535156-12.527344h-64c-24.457031.019531-47.230469 12.464844-60.457031 33.039062-3.8125-.65625-7.671875-1.003906-11.542969-1.039062h-64c-14.457031-.039062-28.585938 4.324219-40.503906 12.511719-19.691406 13.398437-31.4843752 35.671875-31.496094 59.488281v48c.03125 21.84375 12.742188 41.679688 32.574219 50.832031 4.886719 2.28125 10.085937 3.816407 15.425781 4.542969v160.625h16v-288h-16v111.199219c-3.007812-.605469-5.933594-1.570313-8.710938-2.871094-14.171874-6.542969-23.261718-20.71875-23.289062-36.328125v-48c.019531-18.539062 9.203125-35.867188 24.535156-46.289062 9.257813-6.359376 20.234375-9.746094 31.464844-9.710938h64c1.390625 0 2.742188.152344 4.113281.246094-2.707031 7.628906-4.097656 15.660156-4.113281 23.753906v64c.003906 10.117188 2.769531 20.039062 8 28.695312v203.304688h16v-186.113281c7.144531 5 15.367188 8.242187 24 9.472656v176.640625h16v-320h-16v127.199219c-18.613281-3.828125-31.976562-20.199219-32-39.199219v-64c.035156-30.914062 25.085938-55.964844 56-56h64c11.242188-.03125 22.230469 3.359375 31.496094 9.726562 15.3125 10.429688 24.484375 27.746094 24.503906 46.273438v64c-.015625 15.664062-9.167969 29.878906-23.425781 36.367188-2.730469 1.292968-5.609375 2.242187-8.574219 2.832031v-127.199219h-16v320h16v-176.625c5.292969-.710938 10.449219-2.222656 15.289062-4.480469 3.050782-1.414062 5.96875-3.109375 8.710938-5.0625v186.167969h16v-203.441406c5.222656-8.609375 7.988281-18.488282 8-28.558594v-64c-.03125-8.09375-1.429688-16.125-4.136719-23.753906 1.375-.09375 2.738281-.246094 4.136719-.246094h64c11.242188-.03125 22.230469 3.359375 31.496094 9.726562 15.3125 10.429688 24.484375 27.746094 24.503906 46.273438v48c-.015625 15.664062-9.167969 29.878906-23.425781 36.367188-2.730469 1.292968-5.609375 2.242187-8.574219 2.832031v-111.199219h-16v288h16v-160.625c5.292969-.710938 10.449219-2.222656 15.289062-4.480469 19.917969-9.105469 32.699219-28.992187 32.710938-50.894531v-48c-.011719-23.804688-11.789062-46.070312-31.464844-59.472656zm0 0"/><path d="m368 328h16v152h-16zm0 0"/><path d="m96 328h16v152h-16zm0 0"/></g></svg>